<svg xmlns="http://www.w3.org/2000/svg" viewBox="0 0 755 180" width="755" height="180"><svg xmlns="http://www.w3.org/2000/svg" viewBox="0 0 256 256" x="0" y="14" width="150" height="150"><defs><linearGradient id="gs" x1="0" y1="0" x2="1" y2="1"><stop offset="0" stop-color="#1AAB78"/><stop offset="1" stop-color="#0C7A54"/></linearGradient></defs><circle cx="128" cy="128" r="128" fill="url(#gs)"/><polyline points="72,166 110,138 140,152 184,96" fill="none" stroke="#fff" stroke-width="18" stroke-linecap="round" stroke-linejoin="round"/><path d="M156 103 L185 95 L182 125" fill="none" stroke="#fff" stroke-width="18" stroke-linecap="round" stroke-linejoin="round"/></svg><g transform="translate(178,150)"><path d="M63.00 -0.00 L41.11 -39.75 L34.95 -39.75 L34.95 -0.00 L9.30 -0.00 L9.30 -105.30 L52.36 -105.30 Q64.80 -105.30 73.57 -100.95 Q82.36 -96.61 86.70 -89.02 Q91.05 -81.45 91.05 -72.14 Q91.05 -61.64 85.12 -53.39 Q79.20 -45.14 67.64 -41.70 L91.95 -0.00 L63.00 -0.00 Z M34.95 -57.89 L50.86 -57.89 Q57.89 -57.89 61.41 -61.34 Q64.95 -64.80 64.95 -71.11 Q64.95 -77.11 61.41 -80.55 Q57.89 -84.00 50.86 -84.00 L34.95 -84.00 L34.95 -57.89 Z M186.00 -43.20 Q186.00 -39.61 185.55 -35.70 L127.50 -35.70 Q128.10 -27.89 132.51 -23.77 Q136.94 -19.64 143.41 -19.64 Q153.00 -19.64 156.75 -27.75 L184.05 -27.75 Q181.94 -19.50 176.46 -12.89 Q171.00 -6.30 162.75 -2.55 Q154.50 1.20 144.30 1.20 Q132.00 1.20 122.39 -4.05 Q112.80 -9.30 107.39 -19.05 Q102.00 -28.80 102.00 -41.86 Q102.00 -54.89 107.32 -64.64 Q112.66 -74.39 122.25 -79.64 Q131.85 -84.89 144.30 -84.89 Q156.44 -84.89 165.89 -79.78 Q175.35 -74.70 180.67 -65.25 Q186.00 -55.80 186.00 -43.20 Z M159.75 -49.95 Q159.75 -56.55 155.25 -60.45 Q150.75 -64.36 144.00 -64.36 Q137.55 -64.36 133.12 -60.61 Q128.69 -56.86 127.66 -49.95 L159.75 -49.95 Z M250.50 -84.61 Q265.20 -84.61 273.97 -75.07 Q282.75 -65.55 282.75 -48.89 L282.75 -0.00 L257.25 -0.00 L257.25 -45.45 Q257.25 -53.86 252.90 -58.50 Q248.56 -63.14 241.20 -63.14 Q233.84 -63.14 229.48 -58.50 Q225.15 -53.86 225.15 -45.45 L225.15 -0.00 L199.50 -0.00 L199.50 -83.70 L225.15 -83.70 L225.15 -72.61 Q229.06 -78.14 235.65 -81.38 Q242.25 -84.61 250.50 -84.61 Z M295.50 -42.00 Q295.50 -54.89 300.37 -64.64 Q305.25 -74.39 313.64 -79.64 Q322.05 -84.89 332.41 -84.89 Q340.66 -84.89 347.48 -81.45 Q354.30 -78.00 358.19 -72.14 L358.19 -111.00 L383.85 -111.00 L383.85 -0.00 L358.19 -0.00 L358.19 -12.00 Q354.60 -6.00 347.92 -2.39 Q341.25 1.20 332.41 1.20 Q322.05 1.20 313.64 -4.12 Q305.25 -9.45 300.37 -19.27 Q295.50 -29.11 295.50 -42.00 Z M358.19 -41.86 Q358.19 -51.45 352.87 -57.00 Q347.55 -62.55 339.91 -62.55 Q332.25 -62.55 326.92 -57.07 Q321.60 -51.61 321.60 -42.00 Q321.60 -32.39 326.92 -26.77 Q332.25 -21.14 339.91 -21.14 Q347.55 -21.14 352.87 -26.70 Q358.19 -32.25 358.19 -41.86 Z M481.35 -43.20 Q481.35 -39.61 480.90 -35.70 L422.85 -35.70 Q423.45 -27.89 427.86 -23.77 Q432.29 -19.64 438.76 -19.64 Q448.35 -19.64 452.10 -27.75 L479.40 -27.75 Q477.29 -19.50 471.81 -12.89 Q466.35 -6.30 458.10 -2.55 Q449.85 1.20 439.65 1.20 Q427.35 1.20 417.74 -4.05 Q408.15 -9.30 402.74 -19.05 Q397.35 -28.80 397.35 -41.86 Q397.35 -54.89 402.67 -64.64 Q408.01 -74.39 417.60 -79.64 Q427.20 -84.89 439.65 -84.89 Q451.79 -84.89 461.24 -79.78 Q470.70 -74.70 476.02 -65.25 Q481.35 -55.80 481.35 -43.20 Z M455.10 -49.95 Q455.10 -56.55 450.60 -60.45 Q446.10 -64.36 439.35 -64.36 Q432.90 -64.36 428.47 -60.61 Q424.04 -56.86 423.01 -49.95 L455.10 -49.95 Z" fill="#14231D"/></g><g transform="translate(659.1812133789062,150)"><path d="M85.36 -40.95 L59.25 -40.95 L59.25 -14.25 L34.95 -14.25 L34.95 -40.95 L8.86 -40.95 L8.86 -63.89 L34.95 -63.89 L34.95 -90.75 L59.25 -90.75 L59.25 -63.89 L85.36 -63.89 L85.36 -40.95 Z" fill="#1D9E75"/></g></svg>